<mxfile host="app.diagrams.net" agent="Mozilla/5.0 (Windows NT 10.0; Win64; x64) AppleWebKit/537.36 (KHTML, like Gecko) Chrome/130.0.0.0 Safari/537.36" version="24.7.17">
  <diagram name="第 1 页" id="-SyBQIy4cX4uqoUxeaFD">
    <mxGraphModel dx="1536" dy="1988" grid="0" gridSize="10" guides="1" tooltips="1" connect="1" arrows="1" fold="1" page="1" pageScale="1" pageWidth="827" pageHeight="1169" math="0" shadow="0">
      <root>
        <mxCell id="0" />
        <mxCell id="1" parent="0" />
        <mxCell id="5w6PfNys_Y1nwo45y3zw-1" value="P&lt;div&gt;C&lt;/div&gt;" style="html=1;dashed=0;whiteSpace=wrap;" vertex="1" parent="1">
          <mxGeometry x="75" y="310" width="30" height="60" as="geometry" />
        </mxCell>
        <mxCell id="5w6PfNys_Y1nwo45y3zw-5" value="" style="triangle;whiteSpace=wrap;html=1;dashed=0;direction=south;rotation=-180;" vertex="1" parent="1">
          <mxGeometry x="85" y="360" width="10" height="10" as="geometry" />
        </mxCell>
        <mxCell id="5w6PfNys_Y1nwo45y3zw-6" value="" style="shape=ellipse;html=1;dashed=0;whiteSpace=wrap;aspect=fixed;perimeter=ellipsePerimeter;" vertex="1" parent="1">
          <mxGeometry x="85" y="370" width="10" height="10" as="geometry" />
        </mxCell>
        <mxCell id="5w6PfNys_Y1nwo45y3zw-7" value="Instr&lt;div&gt;Mem&lt;/div&gt;" style="html=1;dashed=0;whiteSpace=wrap;" vertex="1" parent="1">
          <mxGeometry x="160" y="370" width="100" height="150" as="geometry" />
        </mxCell>
        <mxCell id="5w6PfNys_Y1nwo45y3zw-10" value="" style="group;rotation=90;" vertex="1" connectable="0" parent="1">
          <mxGeometry x="150" y="400" width="10" height="20" as="geometry" />
        </mxCell>
        <mxCell id="5w6PfNys_Y1nwo45y3zw-8" value="" style="triangle;whiteSpace=wrap;html=1;dashed=0;direction=south;rotation=-90;" vertex="1" parent="5w6PfNys_Y1nwo45y3zw-10">
          <mxGeometry x="10" y="5" width="10" height="10" as="geometry" />
        </mxCell>
        <mxCell id="5w6PfNys_Y1nwo45y3zw-9" value="" style="shape=ellipse;html=1;dashed=0;whiteSpace=wrap;aspect=fixed;perimeter=ellipsePerimeter;rotation=90;" vertex="1" parent="5w6PfNys_Y1nwo45y3zw-10">
          <mxGeometry y="5" width="10" height="10" as="geometry" />
        </mxCell>
        <mxCell id="5w6PfNys_Y1nwo45y3zw-11" value="Reg&lt;div&gt;File&lt;/div&gt;" style="html=1;dashed=0;whiteSpace=wrap;" vertex="1" parent="1">
          <mxGeometry x="490" y="370" width="100" height="150" as="geometry" />
        </mxCell>
        <mxCell id="5w6PfNys_Y1nwo45y3zw-13" value="" style="triangle;whiteSpace=wrap;html=1;dashed=0;direction=south;rotation=-180;" vertex="1" parent="1">
          <mxGeometry x="535" y="510" width="10" height="10" as="geometry" />
        </mxCell>
        <mxCell id="5w6PfNys_Y1nwo45y3zw-14" value="" style="shape=ellipse;html=1;dashed=0;whiteSpace=wrap;aspect=fixed;perimeter=ellipsePerimeter;rotation=0;" vertex="1" parent="1">
          <mxGeometry x="535" y="520" width="10" height="10" as="geometry" />
        </mxCell>
        <mxCell id="5w6PfNys_Y1nwo45y3zw-17" value="&lt;font style=&quot;font-size: 14px;&quot;&gt;Imm&lt;/font&gt;&lt;div&gt;&lt;font size=&quot;3&quot;&gt;Gen&lt;/font&gt;&lt;/div&gt;" style="html=1;dashed=0;whiteSpace=wrap;" vertex="1" parent="1">
          <mxGeometry x="490" y="612" width="100" height="60" as="geometry" />
        </mxCell>
        <mxCell id="5w6PfNys_Y1nwo45y3zw-18" value="" style="html=1;dashed=0;whiteSpace=wrap;" vertex="1" parent="1">
          <mxGeometry x="490" y="706" width="100" height="103" as="geometry" />
        </mxCell>
        <mxCell id="5w6PfNys_Y1nwo45y3zw-23" value="" style="group" vertex="1" connectable="0" parent="1">
          <mxGeometry x="728" y="368" width="40" height="110" as="geometry" />
        </mxCell>
        <mxCell id="5w6PfNys_Y1nwo45y3zw-21" value="" style="shape=trapezoid;perimeter=trapezoidPerimeter;whiteSpace=wrap;html=1;fixedSize=1;size=20;rotation=90;" vertex="1" parent="5w6PfNys_Y1nwo45y3zw-23">
          <mxGeometry x="-35" y="35" width="110" height="40" as="geometry" />
        </mxCell>
        <mxCell id="5w6PfNys_Y1nwo45y3zw-22" value="M&lt;div&gt;U&lt;/div&gt;&lt;div&gt;X&lt;/div&gt;" style="text;html=1;align=center;verticalAlign=middle;resizable=0;points=[];autosize=1;strokeColor=none;fillColor=none;" vertex="1" parent="5w6PfNys_Y1nwo45y3zw-23">
          <mxGeometry x="5" y="25" width="30" height="60" as="geometry" />
        </mxCell>
        <mxCell id="5w6PfNys_Y1nwo45y3zw-30" value="" style="group" vertex="1" connectable="0" parent="1">
          <mxGeometry x="848" y="412" width="160.9" height="151" as="geometry" />
        </mxCell>
        <mxCell id="5w6PfNys_Y1nwo45y3zw-24" value="" style="shape=trapezoid;perimeter=trapezoidPerimeter;whiteSpace=wrap;html=1;fixedSize=1;rotation=90;size=33.55172413793116;" vertex="1" parent="5w6PfNys_Y1nwo45y3zw-30">
          <mxGeometry x="-53.04" y="40.06" width="213.94" height="76.96" as="geometry" />
        </mxCell>
        <mxCell id="5w6PfNys_Y1nwo45y3zw-25" value="&lt;font style=&quot;font-size: 18px;&quot;&gt;A&lt;/font&gt;&lt;div&gt;&lt;font size=&quot;3&quot;&gt;L&lt;/font&gt;&lt;/div&gt;&lt;div&gt;&lt;font size=&quot;3&quot;&gt;U&lt;/font&gt;&lt;/div&gt;" style="text;html=1;align=center;verticalAlign=middle;resizable=0;points=[];autosize=1;strokeColor=none;fillColor=none;" vertex="1" parent="5w6PfNys_Y1nwo45y3zw-30">
          <mxGeometry x="55.00090909090909" y="39.5" width="30" height="72" as="geometry" />
        </mxCell>
        <mxCell id="5w6PfNys_Y1nwo45y3zw-27" value="" style="rounded=0;whiteSpace=wrap;html=1;strokeColor=#FFFFFF;" vertex="1" parent="5w6PfNys_Y1nwo45y3zw-30">
          <mxGeometry y="42" width="20" height="73" as="geometry" />
        </mxCell>
        <mxCell id="5w6PfNys_Y1nwo45y3zw-28" value="" style="endArrow=none;html=1;rounded=0;exitX=0.674;exitY=1.002;exitDx=0;exitDy=0;exitPerimeter=0;" edge="1" parent="5w6PfNys_Y1nwo45y3zw-30" source="5w6PfNys_Y1nwo45y3zw-24">
          <mxGeometry width="50" height="50" relative="1" as="geometry">
            <mxPoint x="7.724363636363544" y="100.66666666666666" as="sourcePoint" />
            <mxPoint x="54.72727272727273" y="74.24166666666666" as="targetPoint" />
          </mxGeometry>
        </mxCell>
        <mxCell id="5w6PfNys_Y1nwo45y3zw-29" value="" style="endArrow=none;html=1;rounded=0;exitX=0.325;exitY=1.004;exitDx=0;exitDy=0;exitPerimeter=0;" edge="1" parent="5w6PfNys_Y1nwo45y3zw-30" source="5w6PfNys_Y1nwo45y3zw-24">
          <mxGeometry width="50" height="50" relative="1" as="geometry">
            <mxPoint x="7.818181818181818" y="49.074999999999996" as="sourcePoint" />
            <mxPoint x="54.72727272727273" y="74.24166666666666" as="targetPoint" />
            <Array as="points">
              <mxPoint x="54.72727272727273" y="74.24166666666666" />
            </Array>
          </mxGeometry>
        </mxCell>
        <mxCell id="5w6PfNys_Y1nwo45y3zw-32" value="" style="group" vertex="1" connectable="0" parent="1">
          <mxGeometry x="786" y="169" width="35" height="92" as="geometry" />
        </mxCell>
        <mxCell id="5w6PfNys_Y1nwo45y3zw-33" value="" style="shape=trapezoid;perimeter=trapezoidPerimeter;whiteSpace=wrap;html=1;fixedSize=1;size=20;rotation=90;" vertex="1" parent="5w6PfNys_Y1nwo45y3zw-32">
          <mxGeometry x="-30.625" y="29.27272727272727" width="96.25" height="33.45454545454545" as="geometry" />
        </mxCell>
        <mxCell id="5w6PfNys_Y1nwo45y3zw-34" value="M&lt;div&gt;U&lt;/div&gt;&lt;div&gt;X&lt;/div&gt;" style="text;html=1;align=center;verticalAlign=middle;resizable=0;points=[];autosize=1;strokeColor=none;fillColor=none;" vertex="1" parent="5w6PfNys_Y1nwo45y3zw-32">
          <mxGeometry x="4.375" y="20.909090909090907" width="30" height="60" as="geometry" />
        </mxCell>
        <mxCell id="5w6PfNys_Y1nwo45y3zw-35" value="" style="group" vertex="1" connectable="0" parent="1">
          <mxGeometry x="735" y="-117" width="31" height="90" as="geometry" />
        </mxCell>
        <mxCell id="5w6PfNys_Y1nwo45y3zw-36" value="" style="shape=trapezoid;perimeter=trapezoidPerimeter;whiteSpace=wrap;html=1;fixedSize=1;size=20;rotation=90;" vertex="1" parent="5w6PfNys_Y1nwo45y3zw-35">
          <mxGeometry x="-27.125" y="28.636363636363637" width="85.25" height="32.72727272727273" as="geometry" />
        </mxCell>
        <mxCell id="5w6PfNys_Y1nwo45y3zw-37" value="M&lt;div&gt;U&lt;/div&gt;&lt;div&gt;X&lt;/div&gt;" style="text;html=1;align=center;verticalAlign=middle;resizable=0;points=[];autosize=1;strokeColor=none;fillColor=none;" vertex="1" parent="5w6PfNys_Y1nwo45y3zw-35">
          <mxGeometry x="3.875" y="20.454545454545457" width="30" height="60" as="geometry" />
        </mxCell>
        <mxCell id="5w6PfNys_Y1nwo45y3zw-38" value="" style="group" vertex="1" connectable="0" parent="1">
          <mxGeometry x="786" y="60" width="35" height="95" as="geometry" />
        </mxCell>
        <mxCell id="5w6PfNys_Y1nwo45y3zw-39" value="" style="shape=trapezoid;perimeter=trapezoidPerimeter;whiteSpace=wrap;html=1;fixedSize=1;size=20;rotation=90;" vertex="1" parent="5w6PfNys_Y1nwo45y3zw-38">
          <mxGeometry x="-30.625000000000004" y="30.227272727272727" width="96.25000000000001" height="34.54545454545455" as="geometry" />
        </mxCell>
        <mxCell id="5w6PfNys_Y1nwo45y3zw-40" value="M&lt;div&gt;U&lt;/div&gt;&lt;div&gt;X&lt;/div&gt;" style="text;html=1;align=center;verticalAlign=middle;resizable=0;points=[];autosize=1;strokeColor=none;fillColor=none;" vertex="1" parent="5w6PfNys_Y1nwo45y3zw-38">
          <mxGeometry x="4.375" y="21.590909090909093" width="30" height="60" as="geometry" />
        </mxCell>
        <mxCell id="5w6PfNys_Y1nwo45y3zw-41" value="" style="group" vertex="1" connectable="0" parent="1">
          <mxGeometry x="1250" y="298" width="40" height="110" as="geometry" />
        </mxCell>
        <mxCell id="5w6PfNys_Y1nwo45y3zw-42" value="" style="shape=trapezoid;perimeter=trapezoidPerimeter;whiteSpace=wrap;html=1;fixedSize=1;size=20;rotation=90;" vertex="1" parent="5w6PfNys_Y1nwo45y3zw-41">
          <mxGeometry x="-35" y="35" width="110" height="40" as="geometry" />
        </mxCell>
        <mxCell id="5w6PfNys_Y1nwo45y3zw-43" value="M&lt;div&gt;U&lt;/div&gt;&lt;div&gt;X&lt;/div&gt;" style="text;html=1;align=center;verticalAlign=middle;resizable=0;points=[];autosize=1;strokeColor=none;fillColor=none;" vertex="1" parent="5w6PfNys_Y1nwo45y3zw-41">
          <mxGeometry x="5" y="25" width="30" height="60" as="geometry" />
        </mxCell>
        <mxCell id="5w6PfNys_Y1nwo45y3zw-44" value="" style="group" vertex="1" connectable="0" parent="1">
          <mxGeometry x="870" y="95" width="60" height="144" as="geometry" />
        </mxCell>
        <mxCell id="5w6PfNys_Y1nwo45y3zw-45" value="" style="shape=trapezoid;perimeter=trapezoidPerimeter;whiteSpace=wrap;html=1;fixedSize=1;rotation=90;size=33.55172413793116;" vertex="1" parent="5w6PfNys_Y1nwo45y3zw-44">
          <mxGeometry x="-32.727272727272734" y="42" width="130.90909090909093" height="60" as="geometry" />
        </mxCell>
        <mxCell id="5w6PfNys_Y1nwo45y3zw-47" value="" style="rounded=0;whiteSpace=wrap;html=1;strokeColor=#FFFFFF;" vertex="1" parent="5w6PfNys_Y1nwo45y3zw-44">
          <mxGeometry y="50" width="13.95" height="44" as="geometry" />
        </mxCell>
        <mxCell id="5w6PfNys_Y1nwo45y3zw-48" value="" style="endArrow=none;html=1;rounded=0;exitX=0.674;exitY=1.002;exitDx=0;exitDy=0;exitPerimeter=0;" edge="1" parent="5w6PfNys_Y1nwo45y3zw-44" source="5w6PfNys_Y1nwo45y3zw-45">
          <mxGeometry width="50" height="50" relative="1" as="geometry">
            <mxPoint x="5.389090909090845" y="95.99999999999999" as="sourcePoint" />
            <mxPoint x="38.18181818181818" y="70.8" as="targetPoint" />
          </mxGeometry>
        </mxCell>
        <mxCell id="5w6PfNys_Y1nwo45y3zw-49" value="" style="endArrow=none;html=1;rounded=0;exitX=0.325;exitY=1.004;exitDx=0;exitDy=0;exitPerimeter=0;" edge="1" parent="5w6PfNys_Y1nwo45y3zw-44" source="5w6PfNys_Y1nwo45y3zw-45">
          <mxGeometry width="50" height="50" relative="1" as="geometry">
            <mxPoint x="5.454545454545454" y="46.8" as="sourcePoint" />
            <mxPoint x="38.18181818181818" y="70.8" as="targetPoint" />
            <Array as="points">
              <mxPoint x="38.18181818181818" y="70.8" />
            </Array>
          </mxGeometry>
        </mxCell>
        <mxCell id="5w6PfNys_Y1nwo45y3zw-51" value="" style="html=1;dashed=0;whiteSpace=wrap;" vertex="1" parent="1">
          <mxGeometry x="1081" y="298" width="100" height="150" as="geometry" />
        </mxCell>
        <mxCell id="5w6PfNys_Y1nwo45y3zw-52" value="" style="triangle;whiteSpace=wrap;html=1;dashed=0;direction=south;rotation=-180;" vertex="1" parent="1">
          <mxGeometry x="1136" y="438" width="10" height="10" as="geometry" />
        </mxCell>
        <mxCell id="5w6PfNys_Y1nwo45y3zw-53" value="" style="shape=ellipse;html=1;dashed=0;whiteSpace=wrap;aspect=fixed;perimeter=ellipsePerimeter;rotation=0;" vertex="1" parent="1">
          <mxGeometry x="1136" y="448" width="10" height="10" as="geometry" />
        </mxCell>
        <mxCell id="5w6PfNys_Y1nwo45y3zw-54" value="Branch&lt;div&gt;Cond&lt;/div&gt;" style="html=1;dashed=0;whiteSpace=wrap;" vertex="1" parent="1">
          <mxGeometry x="1081" y="123" width="100" height="60" as="geometry" />
        </mxCell>
        <mxCell id="5w6PfNys_Y1nwo45y3zw-55" value="" style="group" vertex="1" connectable="0" parent="1">
          <mxGeometry x="693" y="530" width="57" height="134" as="geometry" />
        </mxCell>
        <mxCell id="5w6PfNys_Y1nwo45y3zw-56" value="" style="shape=trapezoid;perimeter=trapezoidPerimeter;whiteSpace=wrap;html=1;fixedSize=1;size=20;rotation=90;" vertex="1" parent="5w6PfNys_Y1nwo45y3zw-55">
          <mxGeometry x="-49.875" y="42.63636363636364" width="156.75" height="48.727272727272734" as="geometry" />
        </mxCell>
        <mxCell id="5w6PfNys_Y1nwo45y3zw-57" value="&lt;font style=&quot;font-size: 18px;&quot;&gt;M&lt;/font&gt;&lt;div&gt;&lt;font size=&quot;3&quot;&gt;U&lt;/font&gt;&lt;/div&gt;&lt;div&gt;&lt;font size=&quot;3&quot;&gt;X&lt;/font&gt;&lt;/div&gt;" style="text;html=1;align=center;verticalAlign=middle;resizable=0;points=[];autosize=1;strokeColor=none;fillColor=none;" vertex="1" parent="5w6PfNys_Y1nwo45y3zw-55">
          <mxGeometry x="12.495000000000001" y="25.364545454545457" width="33" height="72" as="geometry" />
        </mxCell>
        <mxCell id="5w6PfNys_Y1nwo45y3zw-58" value="Addr" style="text;html=1;align=center;verticalAlign=middle;resizable=0;points=[];autosize=1;strokeColor=none;fillColor=none;" vertex="1" parent="1">
          <mxGeometry x="1081" y="310" width="43" height="26" as="geometry" />
        </mxCell>
        <mxCell id="5w6PfNys_Y1nwo45y3zw-59" value="&lt;span style=&quot;text-wrap-mode: wrap;&quot;&gt;&lt;font style=&quot;font-size: 18px;&quot;&gt;&lt;b style=&quot;&quot;&gt;Data&lt;/b&gt;&lt;/font&gt;&lt;/span&gt;&lt;div style=&quot;text-wrap-mode: wrap;&quot;&gt;&lt;font size=&quot;3&quot;&gt;&lt;b&gt;Mem&lt;/b&gt;&lt;/font&gt;&lt;/div&gt;" style="text;html=1;align=center;verticalAlign=middle;resizable=0;points=[];autosize=1;strokeColor=none;fillColor=none;" vertex="1" parent="1">
          <mxGeometry x="1122" y="298" width="57" height="53" as="geometry" />
        </mxCell>
        <mxCell id="5w6PfNys_Y1nwo45y3zw-60" value="MemOp" style="text;html=1;align=center;verticalAlign=middle;resizable=0;points=[];autosize=1;strokeColor=none;fillColor=none;" vertex="1" parent="1">
          <mxGeometry x="1081" y="342" width="61" height="26" as="geometry" />
        </mxCell>
        <mxCell id="5w6PfNys_Y1nwo45y3zw-61" value="DataIn" style="text;html=1;align=center;verticalAlign=middle;resizable=0;points=[];autosize=1;strokeColor=none;fillColor=none;" vertex="1" parent="1">
          <mxGeometry x="1083" y="392" width="53" height="26" as="geometry" />
        </mxCell>
        <mxCell id="5w6PfNys_Y1nwo45y3zw-62" value="WrEn" style="text;html=1;align=center;verticalAlign=middle;resizable=0;points=[];autosize=1;strokeColor=none;fillColor=none;" vertex="1" parent="1">
          <mxGeometry x="1081" y="420" width="48" height="26" as="geometry" />
        </mxCell>
        <mxCell id="5w6PfNys_Y1nwo45y3zw-63" value="DataOut" style="text;html=1;align=center;verticalAlign=middle;resizable=0;points=[];autosize=1;strokeColor=none;fillColor=none;" vertex="1" parent="1">
          <mxGeometry x="1117" y="360" width="63" height="26" as="geometry" />
        </mxCell>
        <mxCell id="5w6PfNys_Y1nwo45y3zw-64" value="" style="triangle;whiteSpace=wrap;html=1;dashed=0;direction=south;rotation=-180;" vertex="1" parent="1">
          <mxGeometry x="1159" y="438" width="10" height="10" as="geometry" />
        </mxCell>
        <mxCell id="5w6PfNys_Y1nwo45y3zw-65" value="" style="shape=ellipse;html=1;dashed=0;whiteSpace=wrap;aspect=fixed;perimeter=ellipsePerimeter;rotation=0;" vertex="1" parent="1">
          <mxGeometry x="1159" y="448" width="10" height="10" as="geometry" />
        </mxCell>
        <mxCell id="5w6PfNys_Y1nwo45y3zw-67" value="Rd" style="text;html=1;align=center;verticalAlign=middle;resizable=0;points=[];autosize=1;strokeColor=none;fillColor=none;" vertex="1" parent="1">
          <mxGeometry x="1122" y="408" width="33" height="26" as="geometry" />
        </mxCell>
        <mxCell id="5w6PfNys_Y1nwo45y3zw-68" value="Wr" style="text;html=1;align=center;verticalAlign=middle;resizable=0;points=[];autosize=1;strokeColor=none;fillColor=none;" vertex="1" parent="1">
          <mxGeometry x="1147.5" y="408" width="33" height="26" as="geometry" />
        </mxCell>
        <mxCell id="5w6PfNys_Y1nwo45y3zw-70" value="Rd" style="text;html=1;align=center;verticalAlign=middle;resizable=0;points=[];autosize=1;strokeColor=none;fillColor=none;" vertex="1" parent="1">
          <mxGeometry x="166" y="374" width="33" height="26" as="geometry" />
        </mxCell>
        <mxCell id="5w6PfNys_Y1nwo45y3zw-71" value="clk" style="text;html=1;align=center;verticalAlign=middle;resizable=0;points=[];autosize=1;strokeColor=none;fillColor=none;" vertex="1" parent="1">
          <mxGeometry x="130" y="380" width="33" height="26" as="geometry" />
        </mxCell>
        <mxCell id="5w6PfNys_Y1nwo45y3zw-72" value="Rd" style="text;html=1;align=center;verticalAlign=middle;resizable=0;points=[];autosize=1;strokeColor=none;fillColor=none;" vertex="1" parent="1">
          <mxGeometry x="166" y="462" width="33" height="26" as="geometry" />
        </mxCell>
        <mxCell id="5w6PfNys_Y1nwo45y3zw-73" value="addr" style="text;html=1;align=center;verticalAlign=middle;resizable=0;points=[];autosize=1;strokeColor=none;fillColor=none;" vertex="1" parent="1">
          <mxGeometry x="162" y="480" width="42" height="26" as="geometry" />
        </mxCell>
        <mxCell id="5w6PfNys_Y1nwo45y3zw-74" value="Instr" style="text;html=1;align=center;verticalAlign=middle;resizable=0;points=[];autosize=1;strokeColor=none;fillColor=none;" vertex="1" parent="1">
          <mxGeometry x="219" y="408" width="41" height="26" as="geometry" />
        </mxCell>
        <mxCell id="5w6PfNys_Y1nwo45y3zw-75" value="Ra" style="text;html=1;align=center;verticalAlign=middle;resizable=0;points=[];autosize=1;strokeColor=none;fillColor=none;" vertex="1" parent="1">
          <mxGeometry x="490" y="374" width="33" height="26" as="geometry" />
        </mxCell>
        <mxCell id="5w6PfNys_Y1nwo45y3zw-76" value="Rb" style="text;html=1;align=center;verticalAlign=middle;resizable=0;points=[];autosize=1;strokeColor=none;fillColor=none;" vertex="1" parent="1">
          <mxGeometry x="490" y="400" width="33" height="26" as="geometry" />
        </mxCell>
        <mxCell id="5w6PfNys_Y1nwo45y3zw-77" value="Rw" style="text;html=1;align=center;verticalAlign=middle;resizable=0;points=[];autosize=1;strokeColor=none;fillColor=none;" vertex="1" parent="1">
          <mxGeometry x="490" y="436" width="35" height="26" as="geometry" />
        </mxCell>
        <mxCell id="5w6PfNys_Y1nwo45y3zw-78" value="busW" style="text;html=1;align=center;verticalAlign=middle;resizable=0;points=[];autosize=1;strokeColor=none;fillColor=none;" vertex="1" parent="1">
          <mxGeometry x="486" y="467" width="49" height="26" as="geometry" />
        </mxCell>
        <mxCell id="5w6PfNys_Y1nwo45y3zw-79" value="RegWr" style="text;html=1;align=center;verticalAlign=middle;resizable=0;points=[];autosize=1;strokeColor=none;fillColor=none;" vertex="1" parent="1">
          <mxGeometry x="483" y="488" width="55" height="26" as="geometry" />
        </mxCell>
        <mxCell id="5w6PfNys_Y1nwo45y3zw-80" value="Wr" style="text;html=1;align=center;verticalAlign=middle;resizable=0;points=[];autosize=1;strokeColor=none;fillColor=none;" vertex="1" parent="1">
          <mxGeometry x="543" y="480" width="33" height="26" as="geometry" />
        </mxCell>
        <mxCell id="5w6PfNys_Y1nwo45y3zw-81" value="Clk" style="text;html=1;align=center;verticalAlign=middle;resizable=0;points=[];autosize=1;strokeColor=none;fillColor=none;" vertex="1" parent="1">
          <mxGeometry x="542" y="500" width="35" height="26" as="geometry" />
        </mxCell>
        <mxCell id="5w6PfNys_Y1nwo45y3zw-82" value="busB" style="text;html=1;align=center;verticalAlign=middle;resizable=0;points=[];autosize=1;strokeColor=none;fillColor=none;" vertex="1" parent="1">
          <mxGeometry x="545" y="454" width="45" height="26" as="geometry" />
        </mxCell>
        <mxCell id="5w6PfNys_Y1nwo45y3zw-83" value="busA" style="text;html=1;align=center;verticalAlign=middle;resizable=0;points=[];autosize=1;strokeColor=none;fillColor=none;" vertex="1" parent="1">
          <mxGeometry x="545" y="408" width="45" height="26" as="geometry" />
        </mxCell>
        <mxCell id="5w6PfNys_Y1nwo45y3zw-84" value="&lt;font style=&quot;font-size: 14px;&quot;&gt;op&lt;/font&gt;" style="text;html=1;align=center;verticalAlign=middle;resizable=0;points=[];autosize=1;strokeColor=none;fillColor=none;" vertex="1" parent="1">
          <mxGeometry x="485" y="709" width="34" height="29" as="geometry" />
        </mxCell>
        <mxCell id="5w6PfNys_Y1nwo45y3zw-85" value="&lt;font style=&quot;font-size: 14px;&quot;&gt;func3&lt;/font&gt;" style="text;html=1;align=center;verticalAlign=middle;resizable=0;points=[];autosize=1;strokeColor=none;fillColor=none;" vertex="1" parent="1">
          <mxGeometry x="483" y="742.5" width="52" height="29" as="geometry" />
        </mxCell>
        <mxCell id="5w6PfNys_Y1nwo45y3zw-86" value="&lt;font style=&quot;font-size: 14px;&quot;&gt;func7&lt;/font&gt;" style="text;html=1;align=center;verticalAlign=middle;resizable=0;points=[];autosize=1;strokeColor=none;fillColor=none;" vertex="1" parent="1">
          <mxGeometry x="483" y="776.5" width="52" height="29" as="geometry" />
        </mxCell>
        <mxCell id="5w6PfNys_Y1nwo45y3zw-87" value="&lt;font style=&quot;font-size: 8px;&quot;&gt;ExtOp&lt;/font&gt;" style="text;html=1;align=center;verticalAlign=middle;resizable=0;points=[];autosize=1;strokeColor=none;fillColor=none;" vertex="1" parent="1">
          <mxGeometry x="614" y="695" width="40" height="26" as="geometry" />
        </mxCell>
        <mxCell id="5w6PfNys_Y1nwo45y3zw-88" value="&lt;font style=&quot;font-size: 8px;&quot;&gt;RegWr&lt;/font&gt;" style="text;html=1;align=center;verticalAlign=middle;resizable=0;points=[];autosize=1;strokeColor=none;fillColor=none;" vertex="1" parent="1">
          <mxGeometry x="612.5" y="708" width="43" height="26" as="geometry" />
        </mxCell>
        <mxCell id="5w6PfNys_Y1nwo45y3zw-89" value="&lt;font style=&quot;font-size: 8px;&quot;&gt;ALUAsrc&lt;/font&gt;" style="text;html=1;align=center;verticalAlign=middle;resizable=0;points=[];autosize=1;strokeColor=none;fillColor=none;" vertex="1" parent="1">
          <mxGeometry x="609.5" y="721" width="50" height="26" as="geometry" />
        </mxCell>
        <mxCell id="5w6PfNys_Y1nwo45y3zw-90" value="&lt;font style=&quot;font-size: 8px;&quot;&gt;ALUBsrc&lt;/font&gt;" style="text;html=1;align=center;verticalAlign=middle;resizable=0;points=[];autosize=1;strokeColor=none;fillColor=none;" vertex="1" parent="1">
          <mxGeometry x="609.5" y="732" width="50" height="26" as="geometry" />
        </mxCell>
        <mxCell id="5w6PfNys_Y1nwo45y3zw-91" value="&lt;font style=&quot;font-size: 8px;&quot;&gt;ALUCtr&lt;/font&gt;" style="text;html=1;align=center;verticalAlign=middle;resizable=0;points=[];autosize=1;strokeColor=none;fillColor=none;" vertex="1" parent="1">
          <mxGeometry x="612.5" y="744" width="44" height="26" as="geometry" />
        </mxCell>
        <mxCell id="5w6PfNys_Y1nwo45y3zw-92" value="&lt;font style=&quot;font-size: 8px;&quot;&gt;Branch&lt;/font&gt;" style="text;html=1;align=center;verticalAlign=middle;resizable=0;points=[];autosize=1;strokeColor=none;fillColor=none;" vertex="1" parent="1">
          <mxGeometry x="613" y="755" width="43" height="26" as="geometry" />
        </mxCell>
        <mxCell id="5w6PfNys_Y1nwo45y3zw-93" value="&lt;font style=&quot;font-size: 8px;&quot;&gt;MemtoReg&lt;/font&gt;" style="text;html=1;align=center;verticalAlign=middle;resizable=0;points=[];autosize=1;strokeColor=none;fillColor=none;" vertex="1" parent="1">
          <mxGeometry x="605.5" y="767" width="57" height="26" as="geometry" />
        </mxCell>
        <mxCell id="5w6PfNys_Y1nwo45y3zw-94" value="&lt;font style=&quot;font-size: 8px;&quot;&gt;MemWr&lt;/font&gt;" style="text;html=1;align=center;verticalAlign=middle;resizable=0;points=[];autosize=1;strokeColor=none;fillColor=none;" vertex="1" parent="1">
          <mxGeometry x="612" y="778" width="46" height="26" as="geometry" />
        </mxCell>
        <mxCell id="5w6PfNys_Y1nwo45y3zw-95" value="&lt;font style=&quot;font-size: 8px;&quot;&gt;MemOp&lt;/font&gt;" style="text;html=1;align=center;verticalAlign=middle;resizable=0;points=[];autosize=1;strokeColor=none;fillColor=none;" vertex="1" parent="1">
          <mxGeometry x="613" y="790" width="46" height="26" as="geometry" />
        </mxCell>
        <mxCell id="5w6PfNys_Y1nwo45y3zw-97" value="&lt;font style=&quot;text-wrap-mode: wrap; font-size: 18px;&quot;&gt;Contr&lt;/font&gt;&lt;div style=&quot;text-wrap-mode: wrap;&quot;&gt;&lt;font size=&quot;3&quot;&gt;Gen&lt;/font&gt;&lt;/div&gt;" style="text;html=1;align=center;verticalAlign=middle;resizable=0;points=[];autosize=1;strokeColor=none;fillColor=none;" vertex="1" parent="1">
          <mxGeometry x="528.5" y="705" width="62" height="53" as="geometry" />
        </mxCell>
      </root>
    </mxGraphModel>
  </diagram>
</mxfile>
